PathFileType	4	(X/Y/Z)	/Users/niels/Desktop/University/Third Semester/Perception and Action/Exam/Gymnastics Motion Tracking/Code for Gym Tracking/Analyzed Data/Webcam_Backflip/id15_2_trajectory_Sports2D/id15_2_trajectory_Sports2D_px_person00.trc
DataRate	CameraRate	NumFrames	NumMarkers	Units	OrigDataRate	OrigDataStartFrame	OrigNumFrames
29.714285714285715	29.714285714285715	12	22	m	29.714285714285715	52	105
Frame#	Time	Hip			RHip			RKnee			RAnkle			RBigToe			RSmallToe			RHeel			LHip			LKnee			LAnkle			LBigToe			LSmallToe			LHeel			Neck			Head			Nose			RShoulder			RElbow			RWrist			LShoulder			LElbow			LWrist		
		X1	Y1	Z1	X2	Y2	Z2	X3	Y3	Z3	X4	Y4	Z4	X5	Y5	Z5	X6	Y6	Z6	X7	Y7	Z7	X8	Y8	Z8	X9	Y9	Z9	X10	Y10	Z10	X11	Y11	Z11	X12	Y12	Z12	X13	Y13	Z13	X14	Y14	Z14	X15	Y15	Z15	X16	Y16	Z16	X17	Y17	Z17	X18	Y18	Z18	X19	Y19	Z19	X20	Y20	Z20	X21	Y21	Z21	X22	Y22	Z22
52	1.75	0.7704589042396979	-0.70070276096477	0.0	0.7515128735727539	-0.693048776528474	0.0	0.6916975455982948	-0.8122104125919579	0.0	0.6123663441404085	-0.90904034945084	0.0	0.647289352584524	-0.9463761608245965	0.0	0.6368862626025655	-0.9455117496201096	0.0	0.5952364666406975	-0.9218582414820929	0.0	0.79286811440652	-0.6990750904998908	0.0	0.8630812511378555	-0.7910269204339078	0.0	0.8855614999605043	-0.9139360302885314	0.0	0.9354011689291292	-0.9331188227860451	0.0	0.9322675372690767	-0.9300309099364665	0.0	0.8811392760977876	-0.9330260123532698	0.0	0.8029440120673106	-0.5339846554808995	0.0	0.8236728897221094	-0.46069466504746903	0.0	0.8291354654070516	-0.499621433114204	0.0	0.7881347350332085	-0.5538553703132528	0.0	0.7856135263889332	-0.6256590995424693	0.0	0.8368925698999714	-0.671576337942743	0.0	0.7999541683092286	-0.5586347017912111	0.0	0.7716793014212505	-0.6230492854890153	0.0	0.8146483030711366	-0.663955614892335	0.0
53	1.783653846153846	0.7705182715332071	-0.7021497519228727	0.0	0.7493861108418799	-0.6940701206513619	0.0	0.6904539454459064	-0.8116928872121242	0.0	0.6165775883011647	-0.9108616231512185	0.0	0.6540266681699852	-0.9467553554880633	0.0	0.6437965937215248	-0.9463144892645411	0.0	0.5969896361226478	-0.9252474807301431	0.0	0.7937143772755211	-0.7004317009341419	0.0	0.861854700523042	-0.7915591478657976	0.0	0.8882362523003141	-0.9136191898895449	0.0	0.9380342371552437	-0.9300967351780829	0.0	0.935122624918167	-0.9275162131655631	0.0	0.8847667424034995	-0.9333094275971184	0.0	0.8082117942236416	-0.5359136535303458	0.0	0.832971096317868	-0.4625246481797302	0.0	0.83546992681	-0.5019558764513334	0.0	0.7865286891180886	-0.5550344160134218	0.0	0.7765354035042054	-0.6272318765393743	0.0	0.8289820852891997	-0.6779275846123547	0.0	0.8105243513660152	-0.5612454532017002	0.0	0.7815238266771011	-0.6246488149029538	0.0	0.8267734975520489	-0.6597584777101276	0.0
54	1.8173076923076923	0.7723350284016229	-0.7024451766231578	0.0	0.7496186068838778	-0.6940443185187393	0.0	0.6918836565295104	-0.8102028841415515	0.0	0.6215405661855663	-0.9108728952009819	0.0	0.6595732323579745	-0.9466591468298566	0.0	0.649485788756159	-0.9465304099850737	0.0	0.6019742535168771	-0.9262581256830907	0.0	0.7956429000751436	-0.7004616863864883	0.0	0.8600232332953686	-0.7918576483219042	0.0	0.8895493166225789	-0.9131596069138885	0.0	0.9392704456595441	-0.9264067474037442	0.0	0.9364366757926735	-0.9247159476023249	0.0	0.8862045852135767	-0.9335821399925852	0.0	0.8130617178941513	-0.5360109338006357	0.0	0.841970761209218	-0.4626523025082778	0.0	0.8415439395719845	-0.5026628020157958	0.0	0.7853567427673507	-0.5537032119294961	0.0	0.766187339165602	-0.6250917105993132	0.0	0.8168042924113255	-0.6822427616425137	0.0	0.8198221888229777	-0.5619342663438088	0.0	0.7903010997081285	-0.625022533647175	0.0	0.8379101778245476	-0.653407405621183	0.0
55	1.8509615384615383	0.7752034103998509	-0.7020500247050177	0.0	0.7513371112929584	-0.6934874486213759	0.0	0.6943137466494873	-0.8081020200183014	0.0	0.6258823310238352	-0.9095728209119017	0.0	0.6631953461858223	-0.9461675485246812	0.0	0.653041730709052	-0.9463344168696336	0.0	0.6072732777072142	-0.9255633440681751	0.0	0.7981796674851088	-0.6997655578598279	0.0	0.8580487670035127	-0.791830694841795	0.0	0.8896980063717524	-0.9126679045834672	0.0	0.9393847183197588	-0.9227183957770532	0.0	0.9365652973252222	-0.9220214200787284	0.0	0.8860617029747431	-0.9339106303998084	0.0	0.8173107954338543	-0.5348428202178274	0.0	0.8499755944585354	-0.4616982772510531	0.0	0.8470086467837191	-0.5021823885155466	0.0	0.7847577268996826	-0.5508154879200987	0.0	0.7558234637544605	-0.6198762489888257	0.0	0.8008035607258889	-0.6837662841510759	0.0	0.8275979711383811	-0.5614311950792543	0.0	0.7983272865191676	-0.6245256678314867	0.0	0.8478354655457263	-0.6465253261330217	0.0
56	1.8846153846153846	0.7786036263448368	-0.7013184509101777	0.0	0.7538868171975122	-0.6928789704392153	0.0	0.6968726291971528	-0.8058684046144542	0.0	0.6291278313167379	-0.907749377914405	0.0	0.6651008608373294	-0.9454274280857511	0.0	0.6546024125464319	-0.9458940976082209	0.0	0.6114817252217007	-0.9240967349265025	0.0	0.8010460402050007	-0.6989273574021818	0.0	0.8568444646826495	-0.791463144267287	0.0	0.8893371495020382	-0.9122273604341463	0.0	0.9391212245983612	-0.9198103248423002	0.0	0.9363148196552327	-0.9198611145831266	0.0	0.8852104317037905	-0.9342173979104351	0.0	0.8212714728993049	-0.5333539174597987	0.0	0.8568899406189897	-0.4606600560742175	0.0	0.8520065181237966	-0.5013742671919011	0.0	0.784998963156001	-0.5476585781758587	0.0	0.7466531663981748	-0.6129890169628441	0.0	0.7826004436225259	-0.6826081859477859	0.0	0.8343713182169445	-0.5608363250363663	0.0	0.8065797263778717	-0.6238132380814432	0.0	0.8571563906210368	-0.6405476272472228	0.0
57	1.9182692307692306	0.7821570473544444	-0.7005660665150039	0.0	0.7568065353041283	-0.6925858194203892	0.0	0.699140572863177	-0.8040386792438576	0.0	0.6311941523610426	-0.906161383988754	0.0	0.6657917175828739	-0.944693771130186	0.0	0.6547290728418841	-0.9454074432726004	0.0	0.6141069035844225	-0.9227505913469651	0.0	0.8040670801068643	-0.6983873650851782	0.0	0.8572896413940035	-0.7908221831111163	0.0	0.8891222367274584	-0.9118969886139273	0.0	0.9392040307345071	-0.9182457777244637	0.0	0.9364224303761809	-0.9185960029072381	0.0	0.8843630155858607	-0.9344228929915515	0.0	0.8253989675052327	-0.5325430601342674	0.0	0.863035145689676	-0.46051954016601476	0.0	0.8568767203831311	-0.5012100119954361	0.0	0.7862970653165658	-0.5453932296685869	0.0	0.7395153393077557	-0.6060458671362958	0.0	0.7642810921296337	-0.6796103550847091	0.0	0.8407864754295796	-0.5612155439963807	0.0	0.8158951943544709	-0.6234916729179439	0.0	0.8664319781933048	-0.6364240347034666	0.0
58	1.9519230769230769	0.7856888237516939	-0.7001144406929187	0.0	0.7598902932027005	-0.6928109597587495	0.0	0.7009312514724869	-0.8030630949020986	0.0	0.6321169590343947	-0.905302874669468	0.0	0.6657558206096053	-0.9442463531276764	0.0	0.6540539504013547	-0.9450913081666341	0.0	0.6151045961036893	-0.92213341122739	0.0	0.8071961389074432	-0.6984056559584273	0.0	0.8599787501714778	-0.7900426212832364	0.0	0.8894802006624339	-0.9116956030991037	0.0	0.940061035846691	-0.9182506581270933	0.0	0.9372805432857655	-0.918493611706297	0.0	0.8839033768965029	-0.9345223891805297	0.0	0.8301030060099605	-0.5331369886009779	0.0	0.868932460482861	-0.461964343835885	0.0	0.8619620500834099	-0.502434288547562	0.0	0.7888928060609175	-0.5447422511732164	0.0	0.7349133010099582	-0.6002720641916236	0.0	0.7477019798680435	-0.6758704718477823	0.0	0.8472633152008922	-0.5632503078571726	0.0	0.8265355541715518	-0.6239435569152363	0.0	0.8759103976532476	-0.6346104319948617	0.0
59	1.985576923076923	0.7892724813020956	-0.7002196189627032	0.0	0.763203934522137	-0.6935847505634295	0.0	0.7023052138485033	-0.8031048926263418	0.0	0.6320179359040229	-0.9052817922097984	0.0	0.6653197377361149	-0.9442383311805611	0.0	0.6530364163794926	-0.9450963049949959	0.0	0.6146892164604393	-0.9223728502076379	0.0	0.8105749026214901	-0.6990632230399034	0.0	0.8651046354983924	-0.7892989828630672	0.0	0.890561642791509	-0.911580494734041	0.0	0.9417500064480724	-0.919744948293091	0.0	0.9389116116924077	-0.9196658937729194	0.0	0.8839333024733875	-0.934542264217666	0.0	0.8356768336229272	-0.5353871457647795	0.0	0.8750505659278217	-0.4651977187483777	0.0	0.8674901492666863	-0.5052873378636271	0.0	0.7930094578354191	-0.5459191717794293	0.0	0.7331576566903507	-0.5962940197758891	0.0	0.7341516570749997	-0.6723407753735228	0.0	0.8539859021775611	-0.5670789477282822	0.0	0.8383024496717181	-0.6253571132623157	0.0	0.8856405017155896	-0.6351498784006546	0.0
60	2.019230769230769	0.7932020950886579	-0.7009900960481501	0.0	0.7670105061263705	-0.6948502555967379	0.0	0.7036850792777534	-0.8039690418823731	0.0	0.6312120804232424	-0.9057843794888336	0.0	0.664574225639034	-0.9445807077499782	0.0	0.6518204094063029	-0.9453681577070987	0.0	0.6133584614167912	-0.9230272072083123	0.0	0.8145245216425073	-0.7003060073051097	0.0	0.872406901619915	-0.7887406493030595	0.0	0.8922919027302633	-0.9114982533911403	0.0	0.9440603443700033	-0.9223917979189284	0.0	0.9411095888934098	-0.9219624136488241	0.0	0.8844049140705497	-0.9345019251531195	0.0	0.8422656266951135	-0.5390142599027615	0.0	0.8816678520254949	-0.4698272793137229	0.0	0.873586096386668	-0.5094077369229466	0.0	0.7986595132959189	-0.5486846453723948	0.0	0.734394895268264	-0.5943155354475094	0.0	0.7243852424507621	-0.6696820558188369	0.0	0.8610670176423342	-0.5722966655762294	0.0	0.8508535757901364	-0.6277586628729799	0.0	0.8955940879795646	-0.6377608114058132	0.0
61	2.0528846153846154	0.79789624512636	-0.7022852055231685	0.0	0.7716496709033229	-0.696441565845004	0.0	0.7058721863294918	-0.8052142086743501	0.0	0.6303142047048214	-0.9061776252416671	0.0	0.6634518795431217	-0.9449767357430943	0.0	0.6503365361547302	-0.9455887294364518	0.0	0.6119381353070951	-0.9232207890887794	0.0	0.8194238245164306	-0.7019363193617315	0.0	0.8812182173688082	-0.7884314216866833	0.0	0.894422426909218	-0.9114560126244289	0.0	0.9466717044851763	-0.9256613157295722	0.0	0.9435769310461	-0.924952009207658	0.0	0.8852056377422783	-0.9344279919170941	0.0	0.8498333228286026	-0.5432856806079628	0.0	0.8888441223902511	-0.47493043481987995	0.0	0.8803178077142416	-0.5139682918101675	0.0	0.805578196870776	-0.5524051300899951	0.0	0.7385498515916823	-0.5942889359063439	0.0	0.7188099592469522	-0.6682281443439906	0.0	0.8686446374075834	-0.578043142256481	0.0	0.8637724431116002	-0.630948771717354	0.0	0.9056962338254607	-0.641906156490865	0.0
62	2.0865384615384612	0.803756633961805	-0.7036418447364169	0.0	0.7774495544592717	-0.6979529549915189	0.0	0.7098767333961195	-0.8063701254351292	0.0	0.6302604351056623	-0.9057456565748909	0.0	0.6619697513296687	-0.9450927479673791	0.0	0.6486138764257523	-0.9453077475252286	0.0	0.6114994696476563	-0.9220031139040736	0.0	0.8255499832208906	-0.7035492231647024	0.0	0.8906133321412487	-0.7883475597592946	0.0	0.8966039478706452	-0.9115342344764861	0.0	0.9492384705196673	-0.9289799339390283	0.0	0.945979363916146	-0.9280744073687823	0.0	0.8861770961621799	-0.93435579392105	0.0	0.8581885699823372	-0.547207478376788	0.0	0.8964736867565052	-0.4793214198133648	0.0	0.8876632315111539	-0.5179086991878131	0.0	0.8133838327184275	-0.5561461124011053	0.0	0.7453423868270538	-0.5958675983829572	0.0	0.7176432157211152	-0.6679365451176387	0.0	0.8768288863194525	-0.5832176134638658	0.0	0.876518113895542	-0.6344567256798277	0.0	0.9158525561826263	-0.6468951713013034	0.0
63	2.1201923076923075	0.8110137557377691	-0.7043659249965618	0.0	0.7846498055834976	-0.6987817600927104	0.0	0.7166497617336063	-0.8071223022959512	0.0	0.6321833374457856	-0.9039457025801818	0.0	0.6604967156230223	-0.944697255636524	0.0	0.6470633852897308	-0.9441561586878477	0.0	0.6131895718102119	-0.9187188840622896	0.0	0.8329662023981977	-0.7045772885756112	0.0	0.8996097931705959	-0.7884119682664142	0.0	0.8985174610153851	-0.9118295112999728	0.0	0.9514172407998144	-0.9319156599562016	0.0	0.9479854663625689	-0.9308412876378225	0.0	0.8871513140160142	-0.93427812837913	0.0	0.8670653524627129	-0.5497701114804932	0.0	0.9043958495170209	-0.48190311159583443	0.0	0.8954816767585199	-0.5201853708968291	0.0	0.8217434462795175	-0.558872362801368	0.0	0.7543507252679176	-0.5983150440799468	0.0	0.720984738100606	-0.6684479283518124	0.0	0.8856193636103812	-0.5867774174578341	0.0	0.8885198577860627	-0.6376094157925983	0.0	0.9259648367912913	-0.6520242507009621	0.0
